# xmcd
#
# Track frame offsets: 
#        207
#        10950
#        21930
#        32255
#        52892
#        68105
#        85180
#        103350
#        117170
#        126832
#        140425
#        154352
#
# Disc length: 2231 seconds
#
# Revision: 1
# Processed by: cddbd v1.5.2PL0 Copyright (c) Steve Scherf et al.
# Submitted via: ExactAudioCopyFreeDBPlugin 1.0
#
DISCID=9b08b50c
DTITLE=I Giganti - Flashback [Disc 2]
DYEAR=2009
DGENRE=pop
TTITLE0=Una Ragazza In Due
TTITLE1=Il Castello Di Samuele
TTITLE2=E Lei Ti Aspetterà
TTITLE3=Summertime
TTITLE4=Sixteen Tons
TTITLE5=Perché Una Luce
TTITLE6=Proposta
TTITLE7=Tema
TTITLE8=Lasciati Baciare Con Il Letkiss
TTITLE9=Ora Siamo Qui
TTITLE10=Una Storia D'Amore
TTITLE11=Vorrei Cambiare Il Mondo
EXTD=
EXTT0=
EXTT1=
EXTT2=
EXTT3=
EXTT4=
EXTT5=
EXTT6=
EXTT7=
EXTT8=
EXTT9=
EXTT10=
EXTT11=
PLAYORDER=
